<?xml version="1.0" encoding="UTF-8"?>
<svg viewBox="0 0 800 600" xmlns="http://www.w3.org/2000/svg">
 <path d="m48.052 5.1121h704.84a45.649 45.649 0 0 1 45.649 45.649v500.14a45.649 45.649 0 0 1 -45.649 45.649h-704.84a45.649 45.649 0 0 1 -45.649 -45.649v-500.14a45.649 45.649 0 0 1 45.649 -45.649" fill="#784421" fill-rule="evenodd" stroke="#784421" stroke-width="6.7788"/>
 <path d="m232.17 382.88c-21.606 10.765-35.545 21.588-46.728 34.727s-20.27 33.794-19.564 46.705 7.2502 27.01 19.83 39.401 36.182 27.408 58.89 36.78c45.415 18.744 111.25 29.328 179.57 27.179s134.15-21.898 177.37-43.428c21.606-10.765 35.425-23.191 46.608-36.33s12.926-26.242 12.22-39.153 0.44285-25.996-12.137-38.387-33.544-30.129-56.251-39.501c-2.43-1.0029 0.11341-1.2948-1.719-4.2018 2.0089-1.4774-1.9321-2.9694-0.66815-2.4477 23.506 9.7014 42.944 21.537 57.065 35.446s23.199 30.404 24.203 48.761-6.2411 35.365-18.794 50.114-30.632 27.764-52.998 38.908c-44.732 22.288-106.76 36.976-176.06 39.156s-132.72-8.5635-179.73-27.966c-23.506-9.7014-42.944-21.537-57.065-35.446s-23.199-30.404-24.203-48.761 6.2411-35.365 18.794-50.114 27.304-26.258 49.67-37.402" fill="#fff" fill-rule="evenodd"/>
 <path d="m607.22 260.58-396.22 0.6635h-0.57929v0.66351c-0.54364 165.24 100.47 254.12 199.95 253.98s197.43-89.302 197.43-254.65v-0.6635h-0.57927zm-0.57927 1.327c-0.26919 164.29-100.66 234.52-199.44 234.66-98.789 0.13975-195.91-69.794-195.62-234l395.06-0.66353z" fill="#fff"/>
 <path d="m408.24 159.03c-54.74 0-104.29 11.406-140.41 29.995-18.058 9.2945-32.76 20.365-43.13 32.984s-16.547 27.103-16.547 42.763 6.1764 30.143 16.547 42.763 25.072 23.69 43.13 32.984c36.116 18.589 85.669 29.995 140.41 29.995s104.29-11.406 140.41-29.995c18.058-9.2945 32.76-20.365 43.13-32.984s16.547-27.103 16.547-42.763-6.1764-30.144-16.547-42.763-25.072-23.69-43.13-32.984c-36.116-18.589-85.669-29.995-140.41-29.995zm0 8.36c54.219 0 103.29 11.376 138.58 29.539 17.644 9.0813 31.838 19.888 41.434 31.566s14.478 23.897 14.478 36.278-4.882 24.6-14.478 36.278-23.791 22.484-41.434 31.566c-35.288 18.163-84.359 29.539-138.58 29.539s-103.29-11.376-138.58-29.539c-17.644-9.0813-31.838-19.888-41.434-31.566s-14.478-23.897-14.478-36.278 4.882-24.6 14.478-36.278 23.791-22.484 41.434-31.566c35.288-18.163 84.359-29.539 138.58-29.539z" fill="#fff" fill-rule="evenodd"/>
 <path d="m213.73 247.46c-75.67-32.586-92.47-2.2534-82.044 32.255 2.7878 9.2274 7.5224 18.753 13.598 27.455 17.364 24.865 50.782 65.953 84.537 74.299 0.84655-1.2946 0.0443-0.19369-0.16134-0.80446-62.03-15.57-122.21-151.45-11.81-97.766 0.57744 0.29835-3.6838-34.803-4.1203-35.437z" fill="none" stroke="#fff" stroke-width="3.4346"/>
 <path transform="matrix(1.3219 0 0 1.158 -654.08 82.435)" d="m949.29 160.22a142.5 77.857 0 1 1 -285 0 142.5 77.857 0 1 1 285 0z" fill="#af753d" fill-rule="evenodd" stroke="#000" stroke-width="2.5"/>
 <path transform="matrix(2.3807 -.02904 0 .98533 -1416 173.32)" d="m765.71 130.93c3.0799 2.0055-1.1839 5.1412-3.3333 5.119-5.8248-0.0599-8.2249-6.9975-6.9048-11.786 2.3614-8.5649 12.538-11.66 20.238-8.6905 11.3 4.3578 15.176 18.147 10.476 28.69-6.2647 14.053-23.779 18.726-37.143 12.262-16.817-8.1349-22.293-29.422-14.048-45.595 9.9868-19.588 35.07-25.87 54.048-15.833 22.364 11.828 29.453 40.723 17.619 62.5-13.663 25.143-46.378 33.041-70.952 19.405-27.923-15.494-36.631-52.034-21.19-79.405 17.322-30.706 57.692-40.223 87.857-22.976 33.489 19.147 43.816 63.351 24.762 96.31" fill="none" stroke="#784421" stroke-width="4.7674"/>
 <path d="m266.83 228.29c0-2.2606-0.9225-0.97324-0.8312-4.5903 0.0911-3.8431 3.0624-14.898 3.4275-18.516 0.92554-3.4804-2.2726-9.8173-1.7699-12.594 0.5868-3.2411 1.9956-3.3929 3.012-4.0692 0.92499-0.61544-0.92834 6.2233 2.1808 12.13 0.6389 3.165 5.5219 2.4985 5.6132 5.8894-2e-5 0.90433-2e-5 2.4868 0 4.7474 0.0911 2.0346-2.6061 11.621-2.6061 14.107s0.92249 0.63424 0.83119 2.8948v4.7474c1.8255 5.1995 4.1986 8.8165 7.1193 10.851 2.9207 1.8085 5.7045 2.7128 8.3515 2.7128 2.2818 1e-5 4.7462-1.0172 7.393-3.0519l6.8455-5.0864c3.1032-2.7127 5.1112-8.2513 6.024-16.616 0.0911-0.45205 0.13692-2.0345 0.13692-4.7473v-10.851c-9e-5 -2.9388-5.2087-0.0133-5.3003-0.23943 0-0.90417-0.0911-2.4866-0.27381-4.7474-0.0911-2.2606-0.22824-4.6342-0.41077-7.121-0.18258-2.7127-0.36509-5.1994-0.54762-7.4601l-0.41068-5.0865c-0.0913-1.1302-0.41082-4.1821-0.95837-9.1556-0.45639-5.1994 4.1593-15.359 3.5204-21.463-0.6389-6.3297 1.3038-18.181 0.66489-24.285s-1.1409-10.738-1.506-13.903c-0.82143-7.686-25.629-12.704-27.271-18.356-1.5517-5.8775-3.2402-11.868-5.0657-17.972-0.63891-2.2605-1.2322-4.6341-1.7798-7.121-0.45639-2.7126-1.141-4.9732-2.0536-6.7819-1.2778-2.2604-2.51-3.9559-3.6966-5.0864l-3.2858-4.0692c-1.0953-1.3562-2.1906-2.9386-3.2858-4.7474s-2.2818-4.408-3.5597-7.7992c-0.27383-0.90403-0.45639-1.5822-0.54763-2.0346-1e-5 -0.67796-1e-5 -1.5822 0-2.7128-1e-5 -2.9386 0.41071-5.1992 1.2322-6.7819s1.7798-2.3734 2.8751-2.3737c1.2778 2.4e-4 2.51 0.5654 3.6965 1.6955 1.2778 0.90449 2.4644 2.0348 3.5597 3.391l3.5596 4.0692c1.2778 1.1306 2.5556 1.8087 3.8334 2.0346l29.709 4.0692c1.2778 0.22629 2.2361 1.3566 2.8751 3.391s0.9583 4.4085 0.95838 7.121v3.0519c-0.1826 1.1305-0.5477 2.4869-1.0953 4.0692-0.54767 1.3566-0.9128 2.0348-1.0953 2.0346h-18.209c-0.45639 2.1e-4 -1.0497 1.0175-1.7798 3.0519-0.63891 2.0348-0.95837 3.5042-0.95837 4.4082v1.6955c0.0911 0.22626 0.27381 0.90445 0.54763 2.0346 0.36509 0.90445 0.54762 1.5826 0.54768 2.0346 3.1945 14.468 29.188 27.625 30.831 42.771 1.7341 14.92-4.3679 40.662-2.8162 56.938 0.73013 7.0081 1.1865 13.79 1.3691 20.346 0.18251 6.3299 5.4371 8.6039 5.4371 15.838v17.633c-0.7302 8.5905-2.1449 15.598-4.2442 21.024-2.0993 5.1995-4.5636 9.3817-7.3931 12.547-2.7382 2.9388-5.7045 4.9734-8.899 6.1038-3.1946 0.90422-6.2979 1.3564-9.3099 1.3564-2.9208 0-5.8871-0.45216-8.8991-1.3564s-5.7502-2.8258-8.2146-5.7646c-2.3731-2.9388-4.3355-7.121-5.8871-12.547-1.4604-5.4255-2.1905-12.66-2.1905-21.702" fill="#fff"/>
 <path d="m356.92 135.79c-1.5773 7e-5 -2.8041 1.1801-3.6804 3.54-0.87628 2.1785-1.5773 4.9924-2.1031 8.4416-0.43811 3.4493-4.0595 11.679-4.41 15.673-0.35054 3.8124-0.83247 7.4432-1.4459 10.892-0.52575 3.4493 4.4944 9.4532 3.4428 11.813-1.0515 2.1785-8.3061 0.16853-10.146 0.16853-1.4897 0 3.2237 2.01 2.5227-0.16853-0.70098-2.36-6.8603-8.0916-6.8603-10.996 0-2.7231 0.13136-5.3554 0.39435-7.897 0.35046-2.5416 3.928-9.591 4.2786-12.133 0.4381-2.7231 0.83246-5.3554 1.183-7.897s0.52576-5.1739 0.52576-7.897c0-1.9969-0.0876-3.9938-0.26288-5.9908-0.17524-2.1784-0.26288-4.3569-0.26288-6.5355 0-1.4522 0.21905-2.9046 0.65722-4.357 0.43811-1.6338 0.92005-3.1769 1.4459-4.6293 0.61339-1.4522 1.183-2.723 1.7087-3.8124 0.61342-1.2707 1.0954-2.36 1.4459-3.2677 0.6134-1.6338 1.0515-3.54 1.3144-5.7186 0.35048-2.3599 0.56953-4.72 0.65717-7.0801 0.17531-2.5415 0.26286-4.9015 0.26286-7.0801 0.0876-2.3599 2.0446-3.7415 2.2199-5.7386 0.0876-0.18142 0.17522-0.81681 0.26286-1.9062 0.0876-1.2707 0.17524-2.0876 0.26289-2.4508 0.87628-5.4461 1.5773-9.9846 2.1031-13.616 0.61339-3.8122 1.183-8.3507 1.7087-13.616 0.0876-1.6337 0.26287-4.3568 0.52577-8.1693 0.26287-3.9938-0.34315-12.154 7e-3 -16.511 0.35054-4.5384 0.65724-8.7138 0.92012-12.526 0.35053-3.9937 0.61342-6.8076 0.78864-8.4416 0.35052-2.1783 0.83246-3.9937 1.4458-5.4462 0.70107-1.4521 1.6212-2.1783 2.7603-2.1785 1.2268 1.9e-4 2.1907 0.72635 2.8917 2.1785 0.78863 1.4525 1.402 3.2679 1.8402 5.4462 3.8783 12.162 3.7794 25.261 9.7291 36.486 17.085 32.231 8.9395 41.022 6.5697 57.734 0.0876 1.0893-0.60606 6.0923-0.25553 8.6338s0.70098 5.2648 1.0515 8.1693c0.43813 2.9047 0.83248 5.6278 1.183 8.1693 0.43809 2.5416 0.74481 4.357 0.9201 5.4462 0.61333 4.5386 1.4896 8.5324 2.6288 11.982 1.2267 3.2678 2.4097 6.6263 3.549 10.076 1.1391 3.2678-4.3073 8.5891-3.4309 12.583 0.87622 3.8124 1.3143 8.5324 1.3144 14.16-9e-5 3.0862 7.3202 20.063 6.444 22.241-0.87637 1.9969 4.351 1.3049 2.7737 1.3049-1.7526 0-9.7402 0.14738-11.055-2.9388-1.2268-3.0862-10.124-21.061-11.176-25.237-1.0516-4.357-2.0594-8.7139-3.0232-13.071-0.96393-4.5385 4.4824-9.8598 3.4309-12.583-0.78864-2.1784-2.0154-4.1754-3.6804-5.9908-1.5773-1.8154-3.3299-3.3585-5.2577-4.6293-1.8402-1.4523-3.6804-2.5415-5.5206-3.2677-1.8402-0.90766-3.3737-1.3615-4.6005-1.3616m-1.0515-27.231c0 1.997 0.52577 3.8124 1.5774 5.4462s1.9716 2.7232 2.7602 3.2677l1.5773 1.0892c0.78863 0.36316 1.6649 0.72625 2.6288 1.0892s1.884 0.81701 2.7602 1.3616l1.9717 0.81693h1.5773c0.43809-0.36301 0.9201-1.0892 1.4458-2.1785s0.74481-1.8153 0.65723-2.1785l-0.73129-35.864c5.087-23.373-6.4034-33.79-6.4414-17.219-0.35051-1.0891-0.46599 1.3246-0.99174 1.3245-0.96394 1.3e-4 -1.7088 0.81706-2.2345 2.4508-0.43818 1.634-0.74487 3.3586-0.9201 5.1739-0.17532 1.2709-0.43818 3.6309-0.78864 7.0801-0.35053 3.2678-2.5704 6.011-3.0085 9.8232-0.35053 3.6309-0.70104 7.171-1.0516 10.62-0.35052 3.2678-0.56957 5.5371-0.65715 6.8078-0.0876 0.5447-0.13149 0.90777-0.13149 1.0892" fill="#fff"/>
 <path d="m399.21 93.795c-0.17945-2.9612 6.1765-14.445 6.0868-16.419s-0.13462-4.3186-0.13462-7.0334c0-3.4548 0.44862-6.4162 1.346-8.8842s1.9742-3.7016 3.2305-3.7018c1.1666 1.9e-4 2.1088 0.98732 2.8266 2.9614 0.8076 1.9744 1.3909 4.3189 1.7498 7.0333 0.44869 2.7148 0.76277 5.6762 0.94222 8.8842 0.2692 2.9616-5.997 14.692-5.8175 17.16 0.35894 4.1955 3.5569 9.8715 4.185 17.028l1.8844 21.47c0.71784 6.9101-5.7303 16.02-5.2816 21.696 0.5384 5.4293 0.85247 8.6375 0.94222 9.6246 0 0.49366 0.17944 2.0977 0.5384 4.8123s0.76272 5.7995 1.2114 9.2544l1.346 9.6246c0.53839 3.2083 5.2693 2.8586 5.5384 4.586 0.35896 2.2211 7.4328 9.4971 8.2405 13.939s1.7497 8.7608 2.8266 12.956-4.2921 3.9527-3.1255 7.1608 2.2882 4.8123 3.3651 4.8123c1.1665 1e-5 2.2882-1.6041 3.3651-4.8123 1.1665-3.2082 2.1984-7.0333 3.0958-11.475s7.0689-7.7572 7.6971-12.199c0.71781-4.442 1.2113-8.0204 1.4806-10.735 1.5254-14.067-3.9326-28.037-2.4968-42.844s-0.10271-30.081-0.10271-44.888c-6e-5 -5.4291 3.6514-11.862 3.3823-17.045-0.17953-5.1823 5.1395-14.433 5.1396-19.862v-4.8123c-8e-5 -2.7144 0.0447-4.3185 0.13464-4.8123 0.26919-1.7273 0.76271-3.825 1.4806-6.293 0.71784-2.7144 1.4806-4.0717 2.2883-4.0719h5.9225c0.98702 2e-4 1.7049 1.3575 2.1537 4.0719 0.44863 2.468 0.67295 4.6891 0.67302 6.6632-7e-5 3.702-0.17958 6.9101-0.53847 9.6246-0.26919 2.468-0.85255 5.5528-1.7498 9.2544-7e-5 1.4809-5.4534 8.0166-5.5434 11.718-6e-5 3.7019-3.8307 8.7774-3.9208 12.973-0.0898 3.9487-1.7094 9.3676-1.799 13.069-8e-5 3.4551-8e-5 5.9229 0 7.4035-8e-5 0.74049-0.0898 2.2212-0.26922 4.4421-0.0899 2.2212-0.1795 3.7019-0.26918 4.4421-0.26928 2.7147-0.718 7.2802-1.3461 13.696s2.485 12.199 1.7671 19.603c-0.62823 7.1568 5.6823 13.6 5.0542 20.263-0.53847 6.4164-0.94223 10.859-1.2114 13.326-1.4358 8.6375-8.1457 16.025-9.3123 24.415-1.1665 8.1439-2.6023 16.535-4.3072 25.172-1.6153 5.4292-3.0511 9.2544-4.3073 11.475-1.1666 2.221-2.8716 3.3316-5.1149 3.3316-2.5126 0-4.9355-2.0977-7.2686-6.293-2.2434-3.9486-4.3521-9.0076-6.3263-15.177-1.8844-6.1696 2.946-8.6415 1.5102-15.305-1.4357-6.9099-2.5574-13.203-3.3651-18.879-0.26918-1.9742-0.67293-4.8122-1.2114-8.514-0.44863-3.9485-11.76-9.024-12.298-12.973s-1.0319-7.5268-1.4806-10.735c-0.35896-3.2081-0.58328-5.1824-0.67296-5.9228-0.26929-2.7145-0.71791-7.4034-1.3461-14.067s5.7302-16.637 5.0124-24.288-1.3909-14.807-2.019-21.47c-0.53847-6.9098-3.6018-11.722-3.7812-14.437" fill="#fff"/>
 <path d="m514.19 183.14c-1.9274 9e-5 -5.252 8.8548-6.3227 12.22-1.0709 3.1065-1.9274 7.119-2.5699 12.038-0.53545 4.9186-1.0173 10.226-1.4456 15.921-0.42833 5.4363-13.567 12.55-14.317 17.469-0.64255 4.9186-1.6062 9.0605-2.8911 12.426-1.285 3.1065-3.0518 4.6597-5.3003 4.6597-1.8204 0-3.1589-1.5532-4.0154-4.6597-0.85667-3.3653-1.285-7.119-1.2849-11.261-7e-5 -3.883 12.71-9.5731 13.032-13.197l1.285-10.873c0.53534-3.883 1.0172-7.6367 1.4456-11.261s0.64244-7.3778 0.64244-11.261c0-2.8475-0.10712-5.6951-0.3212-8.5428-0.21423-3.1064-0.32134-6.2128-0.32124-9.3194-1e-4 -2.0709 0.26768-4.1418 0.80303-6.2129 0.53543-2.3298 1.1243-4.5302 1.7668-6.6012 0.74955-2.0709 1.4456-3.883 2.088-5.4363 0.74954-1.812 1.3385-3.3652 1.7669-4.6597 0.74948-2.3297 1.2849-5.0479 1.6061-8.1545 0.42834-3.3652 0.696-6.7305 0.80311-10.096 0.21413-3.6241 0.32124-6.9894 0.32124-10.096 0.107-3.3652 0.26766-6.4716 0.48186-9.3194 0.10712-0.25872 0.21413-1.1648 0.32123-2.7182 0.10701-1.8119 0.21412-2.9769 0.32124-3.4948 1.0708-7.766 1.9273-14.238 2.5699-19.415 0.74948-5.4361 7.8347-10.314 8.4773-17.822 0.10711-2.3296 0.32122-6.2127 0.64244-11.649 8.6456-37.274-38.223-42.249-61.143-57.796 19.452-9.5816 97.412 26.226 77.289 65.111 1.1761 34.294-3.1451 75.412 11.516 77.684 0.10712 1.5534 0.3747 4.1421 0.80312 7.7662s0.85647 7.5074 1.2849 11.649c0.53533 4.142 1.0171 8.0251 1.4456 11.649 0.53537 3.6243 0.91012 6.213 1.1244 7.7662 0.74946 6.4719 3.6457 4.995 5.0378 9.9135 1.499 4.6598 1.1191 16.621 2.5112 21.539 1.3919 4.6598 2.6234 9.8372 3.6941 15.532 1.0708 5.4363-10.26 15.355-10.26 23.38-1e-4 4.4008-0.53542 8.1545-1.6062 11.261-1.0708 2.8476-2.5699 4.2714-4.4972 4.2714-2.1417 0-4.0156-2.2004-5.6216-6.6012-1.4992-4.4008-2.8912-9.5782-4.1761-15.532-1.285-6.2129 9.3494-15.613 8.1717-21.826-1.178-6.4718-2.4093-11.649-3.6942-15.532-0.96376-3.1064-0.63738-13.126-2.6718-15.715-1.9274-2.5887-4.069-4.789-6.4247-6.6012-2.2487-2.0709-4.4972-3.6241-6.7459-4.6597-2.2487-1.2943-4.1225-1.9415-5.6216-1.9416m-3.1104-31.659c-8e-5 2.8477 0.64247 5.4364 1.9274 7.7662s2.4092 3.8832 3.373 4.6597l1.9274 1.5532c0.96368 0.51785 2.0345 1.0356 3.2124 1.5532s2.3022 1.165 3.373 1.9416l2.4092 1.1649h1.9274c0.53535-0.51766 1.1242-1.5531 1.7668-3.1065s0.91013-2.5886 0.80311-3.1065c-5.506-20.908-11.236-41.62-9.637-68.73-0.21421-1.2942-0.53545-2.5885-0.96377-3.8831-0.42833-1.553-0.96366-2.3297-1.6061-2.3298-1.1779 1.6e-4 -2.0881 1.1651-2.7306 3.4948-0.53533 2.33-0.91012 4.7893-1.1242 7.3779-0.21421 1.8123-0.53545 5.1776-0.96378 10.096-0.42833 4.6598-0.91011 9.7078-1.4456 15.144-0.42832 5.1776-0.85666 10.226-1.2849 15.144-0.42835 4.6598-0.69601 7.8957-0.80312 9.7077-0.10711 0.77672-0.16065 1.2945-0.16057 1.5532" fill="#fff"/>
</svg>
